<svg xmlns="http://www.w3.org/2000/svg" viewBox="0 0 49 51.9"><path d="M17.7.7a8.8,8.8,0,0,0,.1,8.6,7.6,7.6,0,0,0,1.1,1.4,12.5,12.5,0,0,1,1.2.8,16.2,16.2,0,0,0,4.4,1.4l1.1-.2a8.3,8.3,0,0,0,.5-5.6,10.2,10.2,0,0,0-.9-2.2A8.7,8.7,0,0,0,17.7.7Z" fill="#5a6e7f"/><path d="M.1,22.1A9.2,9.2,0,0,0,0,23.7v.6c0,.2.1.3.1.5a2.5,2.5,0,0,0,.1.8.8.8,0,0,0,.1.4,3.1,3.1,0,0,0,.2.8h0A17.3,17.3,0,0,0,2,30.7a27,27,0,0,0,1.5,2.9c2.2,3.9,4.8,8.7,8.1,13.5,2.6,2.9,5.2,5,8.3,4.8a9.2,9.2,0,0,0,4.6-1.8,9.2,9.2,0,0,0,4.6,1.8c3.1.2,6-1.6,8.5-4.5,3.7-4.9,5.7-9.9,7.9-13.8A27,27,0,0,0,47,30.7a17.3,17.3,0,0,0,1.5-3.9h0a3.1,3.1,0,0,0,.2-.8.8.8,0,0,0,.1-.4,2.5,2.5,0,0,0,.1-.8c0-.2.1-.3.1-.5v-.6a9.2,9.2,0,0,0-.1-1.6,16,16,0,0,0-5.5-9.9h0A12.1,12.1,0,0,0,36,9.4h-.4a12.4,12.4,0,0,0-4.7,1,7.8,7.8,0,0,0-2,1.1l-2,.8a23.7,23.7,0,0,1,4.9-9.6l.7-.8C32,1.3,31.5.6,30.9,0a26.1,26.1,0,0,0-4.8,7.1,8.3,8.3,0,0,1-.5,5.6l-1.1.2a16.2,16.2,0,0,1-4.4-1.4,12.5,12.5,0,0,0-1.2-.8l-.8-.3a12.4,12.4,0,0,0-4.7-1H13a12.1,12.1,0,0,0-7.4,2.8h0A16,16,0,0,0,.1,22.1Z" fill="#97d5c9"/></svg>