<svg xmlns="http://www.w3.org/2000/svg" viewBox="0 0 69.2 75.9"><path d="M.1,42.7a2.8,2.8,0,0,0,2.6,1.9H3L28.3,41,26.6,26.6,1.4,39.5A2.8,2.8,0,0,0,.1,42.7Z" fill="#97d5c9"/><path d="M42.1,26.3,40.8,40.9l25.5,2.6h.3a2.6,2.6,0,0,0,2.5-1.9,2.7,2.7,0,0,0-1.4-3.2Z" fill="#97d5c9"/><path d="M22.2,72.9a1.2,1.2,0,0,0,1.1.8h.2l8.4-1.5-.7-6.4-8.6,5.9A1.1,1.1,0,0,0,22.2,72.9Z" fill="#97d5c9"/><path d="M38.8,65.5,38.2,72l8.6,1.2H47a1,1,0,0,0,1-.8,1.1,1.1,0,0,0-.4-1.3Z" fill="#97d5c9"/><path d="M42.9,14.8c-.3-5-2.1-14-9-14.8-6.5.8-8.2,11-8.4,14.8a3.1,3.1,0,0,0-.1,1c0,.3.1.6.1,1h0l1.1,9.8L28.3,41l2.9,24.7.7,6.4.2,2h.2a2.9,2.9,0,0,0,2.9,1.9A2.8,2.8,0,0,0,38,74h.1c0-.2.1-.4.1-.7V72l.6-6.5,2-24.6,1.3-14.6.8-9.8h0v-.6H43c0-.1-.1-.1-.1-.2v-.2C43,15.2,42.9,15,42.9,14.8Z" fill="#5a6e7f"/></svg>