<svg xmlns="http://www.w3.org/2000/svg" viewBox="0 0 79.8 51.2"><polygon points="78.3 28.2 78.3 13.8 76.1 14.5 76.1 28.2 78.3 28.2" fill="#97d5c9"/><path d="M65.1,22.3,40.4,30.7H39L14.4,22.3V43h0v.3c0,2.4,11.3,7.9,25.3,7.9S65,45.7,65,43.3V43h.1Z" fill="#5a6e7f"/><polygon points="14.4 18.3 39.7 26.8 65.1 18.3 76.1 14.5 78.3 13.8 79.4 13.4 39.7 0 0 13.4 14.4 18.3" fill="#5a6e7f"/><path d="M74.6,31.5V40a2.6,2.6,0,0,0,2.6,2.6A2.6,2.6,0,0,0,79.8,40V31.5a2.5,2.5,0,0,0-.8-1.8H75.3A2.9,2.9,0,0,0,74.6,31.5Z" fill="#97d5c9"/><polygon points="75 28.2 75 29.7 75.3 29.7 79 29.7 79.4 29.7 79.4 28.2 78.3 28.2 76.1 28.2 75 28.2" fill="#5cbeaa"/></svg>