<svg xmlns="http://www.w3.org/2000/svg" viewBox="0 0 64.1 71.2"><path d="M29.4,58.4h5a3.8,3.8,0,0,0,3.5-2.3h-12A3.7,3.7,0,0,0,29.4,58.4Z" fill="#5a6e7f"/><rect x="25.6" y="53" width="12.7" height="1.32" fill="#5cbeaa"/><path d="M25.9,56.1h12a3.7,3.7,0,0,0,.3-1.5v-.3H25.6v.3A3.7,3.7,0,0,0,25.9,56.1Z" fill="#97d5c9"/><path d="M29.9,42.9H28.8a.2.2,0,0,0-.2.2v3.6h-2a1,1,0,0,0-1,1V53H38.2V47.7a1,1,0,0,0-1-1h-.6V43.1a.2.2,0,0,0-.2-.2H35.3c-.2,0-.3.1-.3.2v3.6H30.2V43.1C30.2,43,30,42.9,29.9,42.9Z" fill="#5a6e7f"/><text/><path d="M49.6,41.4h.1a14.4,14.4,0,0,0,1.5-28.8l-.9,1.9h3.2l-6.1,6.1s-.2-.1-.1-.2l2.5-4.5H47.7c-.1,0-.2-.1-.1-.1l2.5-2.9h0l.2-.3h-.6a14.7,14.7,0,0,0-4.2.6,16.9,16.9,0,0,0-33.3,3.8,12.1,12.1,0,0,0,.1,1.9h-.9a11.4,11.4,0,0,0-.1,22.7H49.6Z" fill="#5a6e7f"/><path d="M47.4,20.6l6.1-6.1H50.3l.9-1.9L52.4,10h0l-2.1,2.5-.2.3h0l-2.5,2.9c-.1,0,0,.1.1.1h2.1l-2.5,4.5C47.2,20.5,47.4,20.6,47.4,20.6Z" fill="#fff"/></svg>