<svg xmlns="http://www.w3.org/2000/svg" viewBox="0 0 58.8 54.6"><path d="M11.7,46.4a27.1,27.1,0,0,0,15.1,7.9A35.3,35.3,0,0,1,18,42.8,39.4,39.4,0,0,0,11.7,46.4Z" fill="#5a6e7f"/><path d="M4.5,32.5a26.3,26.3,0,0,0,5.8,12.4,39.9,39.9,0,0,1,6.9-4,35.6,35.6,0,0,1-2.6-11.6H8.2A4,4,0,0,1,4.5,32.5Z" fill="#5a6e7f"/><path d="M30.4,37.9V29.3H16.7a32.7,32.7,0,0,0,2.4,10.8A39.1,39.1,0,0,1,30.4,37.9Z" fill="#5a6e7f"/><path d="M30.4,54.6V40A33.1,33.1,0,0,0,20,42,33.3,33.3,0,0,0,30.4,54.6Z" fill="#5a6e7f"/><path d="M14.6,11.7a4,4,0,0,1,3-1.3l1,.2A37.3,37.3,0,0,1,26.8.2a27.5,27.5,0,0,0-16,9A31.1,31.1,0,0,0,14.6,11.7Z" fill="#5a6e7f"/><path d="M17.7,18.7a34.8,34.8,0,0,0-1.1,8.5H30.4V18.5A37.8,37.8,0,0,1,21,16.9,3.9,3.9,0,0,1,17.7,18.7Z" fill="#5a6e7f"/><path d="M9.5,10.8A27.6,27.6,0,0,0,4.1,24.2h.1a4.2,4.2,0,0,1,3.9,3h6.5a33.4,33.4,0,0,1,1.1-8.9,4.1,4.1,0,0,1-2.3-3.7,3,3,0,0,1,.2-1A42.1,42.1,0,0,1,9.5,10.8Z" fill="#5a6e7f"/><path d="M43.7,45h-.4a34.6,34.6,0,0,1-7.7,9.4,27.7,27.7,0,0,0,15.8-8.3,33.5,33.5,0,0,0-4.5-2.7A3.9,3.9,0,0,1,43.7,45Z" fill="#5a6e7f"/><path d="M52.8,44.5a27.4,27.4,0,0,0,6-15.2H47.9a40.9,40.9,0,0,1-1.5,8.5,3.8,3.8,0,0,1,1.4,3.1v.6A50.9,50.9,0,0,1,52.8,44.5Z" fill="#5a6e7f"/><path d="M46,15.6a34.8,34.8,0,0,1,1.9,11.6H58.8a27.1,27.1,0,0,0-5.2-16A32,32,0,0,1,46,15.6Z" fill="#5a6e7f"/><path d="M30.4,16.4V0a34.8,34.8,0,0,0-10,11.6,4,4,0,0,1,1.3,3v.3A31.7,31.7,0,0,0,30.4,16.4Z" fill="#5a6e7f"/><path d="M32.4,16.5a34.1,34.1,0,0,0,11-2.1A35.3,35.3,0,0,0,32.4.2Z" fill="#5a6e7f"/><path d="M45.3,13.7a34.7,34.7,0,0,0,7-4.1A26.9,26.9,0,0,0,35.6.2,35.1,35.1,0,0,1,45.3,13.7Z" fill="#5a6e7f"/><path d="M32.4,27.2H45.8a35.9,35.9,0,0,0-1.7-10.8,33.6,33.6,0,0,1-11.7,2.1Z" fill="#5a6e7f"/><path d="M32.4,39.9V54.3a32.6,32.6,0,0,0,8.9-10,4.2,4.2,0,0,1-1.8-3.4h0A41.8,41.8,0,0,0,32.4,39.9Z" fill="#5a6e7f"/><path d="M40.1,38.8a4.2,4.2,0,0,1,3.6-2.1h.8a38,38,0,0,0,1.3-7.5H32.4v8.6A33.1,33.1,0,0,1,40.1,38.8Z" fill="#5a6e7f"/><path d="M17.6,10.4a4,4,0,0,0-3,1.3,3.5,3.5,0,0,0-1,1.9,3,3,0,0,0-.2,1,4.1,4.1,0,0,0,2.3,3.7,3.8,3.8,0,0,0,1.9.5h.1A3.9,3.9,0,0,0,21,16.9a3.7,3.7,0,0,0,.7-2v-.3a4.2,4.2,0,0,0-3.1-4Z" fill="#97d5c9"/><path d="M4.2,24.2H4.1a4.2,4.2,0,0,0,.1,8.4h.3a4,4,0,0,0,3.7-3.2,2.8,2.8,0,0,0,.1-.9,5,5,0,0,0-.2-1.2A4.2,4.2,0,0,0,4.2,24.2Z" fill="#5cbeaa"/><path d="M44.5,36.8h-.8a4.2,4.2,0,0,0-3.6,2.1,3.6,3.6,0,0,0-.6,2h0a4.2,4.2,0,0,0,1.8,3.4,4.8,4.8,0,0,0,2,.7h.4a3.9,3.9,0,0,0,3.2-1.6,4.2,4.2,0,0,0,.9-1.9v-.6a3.8,3.8,0,0,0-1.4-3.1A3.5,3.5,0,0,0,44.5,36.8Z" fill="#97d5c9"/></svg>