<svg xmlns="http://www.w3.org/2000/svg" viewBox="0 0 81.3 72.7"><path d="M32.2,0A17.3,17.3,0,1,0,49.5,17.3,17.2,17.2,0,0,0,32.2,0Zm5.3,24a8.2,8.2,0,0,1-3.2,1.2v1.4a.9.9,0,0,1-.8.8H32a.9.9,0,0,1-.9-.8V25.2a9.5,9.5,0,0,1-3.7-1.6A8,8,0,0,1,25.8,22c-.1-.2-.2-.3-.2-.5a.7.7,0,0,1,.4-.6l1.5-.9H28a.9.9,0,0,1,.7.3,6.3,6.3,0,0,0,2.4,1.7V18.3a6.2,6.2,0,0,1-4.3-2.2,4.1,4.1,0,0,1-.8-2.4q-.2-2.8,3-4.2a6.5,6.5,0,0,1,2.1-.6V7.3a.9.9,0,0,1,.9-.8h1.5a.9.9,0,0,1,.8.8V8.9a7,7,0,0,1,4.1,2.3c.2.1.2.3.2.5a.5.5,0,0,1-.3.5l-1.7,1.1h0a.8.8,0,0,1-.6.1,1,1,0,0,1-.7-.2l-1-.7v2.9a7.3,7.3,0,0,1,4.5,2.1,3.9,3.9,0,0,1,.9,2.6A4.7,4.7,0,0,1,37.5,24Z" fill="#97d5c9"/><path d="M32,27.4h1.5a.9.9,0,0,0,.8-.8V25.2A8.2,8.2,0,0,0,37.5,24a4.7,4.7,0,0,0,2.2-3.9,3.9,3.9,0,0,0-.9-2.6,7.3,7.3,0,0,0-4.5-2.1V12.5l1,.7a1,1,0,0,0,.7.2.8.8,0,0,0,.6-.1h0l1.7-1.1a.5.5,0,0,0,.3-.5c0-.2,0-.4-.2-.5a7,7,0,0,0-4.1-2.3V7.3a.9.9,0,0,0-.8-.8H32a.9.9,0,0,0-.9.8V8.9a6.5,6.5,0,0,0-2.1.6q-3.2,1.4-3,4.2a4.1,4.1,0,0,0,.8,2.4,6.2,6.2,0,0,0,4.3,2.2v3.6a6.3,6.3,0,0,1-2.4-1.7.9.9,0,0,0-.7-.3h-.5l-1.5.9a.7.7,0,0,0-.4.6c0,.2.1.3.2.5a8,8,0,0,0,1.6,1.6,9.5,9.5,0,0,0,3.7,1.6v1.4A.9.9,0,0,0,32,27.4Zm2.3-8.7c.8.3,1.2.7,1.2,1.4a1.8,1.8,0,0,1-.9,1.6h-.3Zm-4.2-5a1.4,1.4,0,0,1,.9-1.2h.1V15A1.5,1.5,0,0,1,30.1,13.7Z" fill="#fff"/><path d="M30.1,13.7a1.5,1.5,0,0,0,1,1.3V12.4H31A1.4,1.4,0,0,0,30.1,13.7Z" fill="#97d5c9"/><path d="M34.3,21.8h.3a1.8,1.8,0,0,0,.9-1.6c0-.7-.4-1.1-1.2-1.4Z" fill="#97d5c9"/><path d="M81.3,46.5h0c-5.8,0-9.4-3.6-13.8-6.6a19.1,19.1,0,0,0-11.7-4.1H38a3.2,3.2,0,1,0,0,6.3H49.2a4.8,4.8,0,0,1,4,4.7A4.9,4.9,0,0,1,50.8,51l-4.4,1.1-4.2,1.1h-.3L30.7,56.2a4.7,4.7,0,0,1-1.7-.1L11.3,44.7,8.1,42.3h0l-.5-.3-.7-.3-.6-.2H4.7a5,5,0,0,0-3.2,8.6h0l1.3.9,1.2.8L31.7,72.2h0l.3.2a6.9,6.9,0,0,0,2,.3h1.4c9.3-2.4,28.7-7.4,37.8-9.6l.7-.2a35,35,0,0,1,7.4-1.3V60.2h0V46.5Z" fill="#5a6e7f"/></svg>