<svg xmlns="http://www.w3.org/2000/svg" viewBox="0 0 51.6 53.1"><path d="M2.1,18.7A2.1,2.1,0,0,0,0,20.8H0v.9H51.6v-.9h0a2.1,2.1,0,0,0-2.1-2.1Z" fill="#97d5c9"/><path d="M.4,25.6H51.1a23.4,23.4,0,0,0,.4-2.6,5.7,5.7,0,0,1,.1-1.3H0c0,.4.1.9.1,1.3Z" fill="#5cbeaa"/><path d="M50.9,26.9a5.9,5.9,0,0,0,.2-1.3H.4l.3,1.3Z" fill="#97d5c9"/><path d="M50.9,26.9H.7a26,26,0,0,0,20,19.9H18a3.2,3.2,0,1,0,0,6.3H33.6a3.2,3.2,0,0,0,0-6.3H30.9A26.1,26.1,0,0,0,50.9,26.9Z" fill="#5a6e7f"/><path d="M34.8,18h7.9l1.2-8.6a6.1,6.1,0,0,1,1.4-2.9,3.5,3.5,0,0,0,.8-2.2,4.3,4.3,0,0,0-3-4.1,4.4,4.4,0,0,0-5.7,2.9,3.7,3.7,0,0,0,.1,1.8,5.1,5.1,0,0,1,.1,3Z" fill="#5a6e7f"/></svg>