<svg xmlns="http://www.w3.org/2000/svg" viewBox="0 0 58.9 50.7"><path d="M29.4,9.1A15.4,15.4,0,0,0,0,15.4a14.4,14.4,0,0,0,.9,5.1,9.7,9.7,0,0,0,1.4,2.9H19.9l5.6-12.6,6.3,21.3,4.3-8.6H56.6A25.9,25.9,0,0,0,58,20.6a15,15,0,0,0,.9-5.2A15.4,15.4,0,0,0,29.4,9.1Z" fill="#5a6e7f"/><path d="M37.5,25.7,31.3,38.2,25.1,17.3l-3.8,8.4H4l1.5,1.5L29,50.5l.5.2.5-.2L54.4,26.3h0l.5-.6Z" fill="#5a6e7f"/><path d="M31.8,32.1,25.5,10.8,19.9,23.4H2.3a14.3,14.3,0,0,0,1.4,2l.3.3H21.3l3.8-8.4,6.2,20.9,6.2-12.5H55a18.4,18.4,0,0,0,1.7-2.2H36.1Z" fill="#97d5c9"/></svg>