<svg width="22" height="22" viewBox="0 0 22 22" fill="none" xmlns="http://www.w3.org/2000/svg">
<path fill-rule="evenodd" clip-rule="evenodd" d="M11.1667 0.166626C8.22434 0.166626 7.856 0.178904 6.70045 0.231626C5.54706 0.284348 4.75911 0.467793 4.07011 0.735737C3.34789 1.00729 2.69284 1.4334 2.15117 1.98518C1.60027 2.52622 1.1739 3.18082 0.901725 3.9034C0.635225 4.5924 0.451058 5.38107 0.398336 6.53446C0.346336 7.68929 0.333336 8.0569 0.333336 11C0.333336 13.943 0.345614 14.3106 0.398336 15.4662C0.451058 16.6196 0.634503 17.4075 0.902447 18.0965C1.174 18.8187 1.60011 19.4738 2.15189 20.0155C2.69295 20.5663 3.34754 20.9927 4.07011 21.2649C4.75911 21.5321 5.54706 21.7156 6.70045 21.7683C7.856 21.821 8.22434 21.8333 11.1667 21.8333C14.109 21.8333 14.4773 21.821 15.6329 21.7683C16.7863 21.7156 17.5742 21.5321 18.2632 21.2642C18.9854 20.9926 19.6405 20.5665 20.1822 20.0147C20.7331 19.4737 21.1594 18.8191 21.4316 18.0965C21.6988 17.4075 21.8823 16.6196 21.935 15.4662C21.9877 14.3106 22 13.9423 22 11C22 8.05763 21.9877 7.68929 21.935 6.53374C21.8823 5.38035 21.6988 4.5924 21.4309 3.9034C21.1589 3.18051 20.7325 2.52564 20.1814 1.98446C19.6404 1.43356 18.9858 1.00719 18.2632 0.735015C17.5742 0.468515 16.7856 0.284348 15.6322 0.231626C14.4773 0.179626 14.1097 0.166626 11.1667 0.166626ZM11.1667 2.11879C14.0592 2.11879 14.4022 2.12963 15.5448 2.18163C16.6007 2.23001 17.1741 2.40551 17.5562 2.55501C18.0617 2.75074 18.4228 2.98618 18.802 3.36463C19.1812 3.74379 19.4159 4.1049 19.6116 4.61046C19.7604 4.99251 19.9366 5.56596 19.985 6.62185C20.037 7.7644 20.0478 8.10746 20.0478 11C20.0478 13.8925 20.037 14.2355 19.985 15.3781C19.9366 16.434 19.7611 17.0074 19.6116 17.3895C19.4382 17.86 19.1616 18.2857 18.802 18.6353C18.4525 18.9949 18.0268 19.2716 17.5562 19.4449C17.1741 19.5937 16.6007 19.7699 15.5448 19.8183C14.4022 19.8703 14.0599 19.8811 11.1667 19.8811C8.27345 19.8811 7.93111 19.8703 6.78856 19.8183C5.73267 19.7699 5.15922 19.5944 4.77717 19.4449C4.30661 19.2715 3.8809 18.9949 3.53134 18.6353C3.1718 18.2857 2.89515 17.86 2.72172 17.3895C2.57295 17.0074 2.39672 16.434 2.34834 15.3781C2.29634 14.2355 2.2855 13.8925 2.2855 11C2.2855 8.10746 2.29634 7.7644 2.34834 6.62185C2.39672 5.56596 2.57222 4.99251 2.72172 4.61046C2.91745 4.1049 3.15289 3.74379 3.53134 3.36463C3.88085 3.00499 4.30658 2.72833 4.77717 2.55501C5.15922 2.40624 5.73267 2.23001 6.78856 2.18163C7.93111 2.12963 8.27417 2.11879 11.1667 2.11879Z" fill="white"/>
<path fill-rule="evenodd" clip-rule="evenodd" d="M11.1667 14.6147C10.692 14.6147 10.2219 14.5212 9.78339 14.3395C9.34483 14.1579 8.94635 13.8916 8.61069 13.556C8.27503 13.2203 8.00877 12.8218 7.82712 12.3833C7.64546 11.9447 7.55196 11.4747 7.55196 11C7.55196 10.5253 7.64546 10.0552 7.82712 9.61666C8.00877 9.17811 8.27503 8.77962 8.61069 8.44396C8.94635 8.10831 9.34483 7.84205 9.78339 7.66039C10.2219 7.47873 10.692 7.38524 11.1667 7.38524C12.1254 7.38524 13.0448 7.76607 13.7227 8.44396C14.4006 9.12186 14.7814 10.0413 14.7814 11C14.7814 11.9586 14.4006 12.8781 13.7227 13.556C13.0448 14.2338 12.1254 14.6147 11.1667 14.6147ZM11.1667 5.43163C9.68987 5.43163 8.27354 6.01829 7.22928 7.06255C6.18501 8.10682 5.59835 9.52314 5.59835 11C5.59835 12.4768 6.18501 13.8931 7.22928 14.9374C8.27354 15.9816 9.68987 16.5683 11.1667 16.5683C12.6435 16.5683 14.0598 15.9816 15.1041 14.9374C16.1484 13.8931 16.735 12.4768 16.735 11C16.735 9.52314 16.1484 8.10682 15.1041 7.06255C14.0598 6.01829 12.6435 5.43163 11.1667 5.43163ZM18.355 5.33051C18.355 5.67961 18.2163 6.0144 17.9694 6.26124C17.7226 6.50809 17.3878 6.64676 17.0387 6.64676C16.6896 6.64676 16.3548 6.50809 16.108 6.26124C15.8611 6.0144 15.7225 5.67961 15.7225 5.33051C15.7225 4.98142 15.8611 4.64663 16.108 4.39979C16.3548 4.15294 16.6896 4.01426 17.0387 4.01426C17.3878 4.01426 17.7226 4.15294 17.9694 4.39979C18.2163 4.64663 18.355 4.98142 18.355 5.33051Z" fill="white"/>
</svg>
