<svg xmlns="http://www.w3.org/2000/svg" viewBox="0 0 71 46.4"><path d="M8.3,0A1.6,1.6,0,0,0,6.7,1.6V35a1.7,1.7,0,0,0,1.6,1.7H62.7A1.7,1.7,0,0,0,64.3,35V1.6A1.6,1.6,0,0,0,62.7,0ZM60.5,33H10.4V3.5H60.5Z" fill="#5a6e7f"/><path d="M63.7,37.3H7.3a1.4,1.4,0,0,0-1,.5L.6,43.1c-1.2,1.1-.5,3.3,1,3.3H69.4c1.5,0,2.2-2.2,1-3.3l-5.7-5.3A1.4,1.4,0,0,0,63.7,37.3Z" fill="#5a6e7f"/><path d="M60.5,33V3.5H10.4V33ZM35,22.4H24.1V21.1H35Zm12.3,7.4H35.6v-1H47.3ZM58,28.1H35.6v-1H58Zm0-1.8H35.6v-1H58Zm0-1.7H35.6v-1H58ZM35.6,22.4V21.1H46.5v1.3Zm22.4,0H47.2V21.1H58ZM12.6,6H58V19.9H12.6Zm0,15.1H23.5v1.3H12.6Zm0,2.5H35v6.8H12.6Z" fill="#fff"/><rect x="12.6" y="6" width="45.4" height="13.85" fill="#97d5c9"/><rect x="12.6" y="21.1" width="10.8" height="1.35" fill="#5cbeaa"/><rect x="12.6" y="23.6" width="22.3" height="6.8" fill="#5cbeaa"/><rect x="24.1" y="21.1" width="10.8" height="1.35" fill="#5cbeaa"/><rect x="35.6" y="21.1" width="10.8" height="1.35" fill="#5cbeaa"/><rect x="35.6" y="23.6" width="22.3" height="1.02" fill="#97d5c9"/><rect x="35.6" y="25.3" width="22.3" height="1.02" fill="#97d5c9"/><rect x="35.6" y="27.1" width="22.3" height="1.02" fill="#97d5c9"/><rect x="35.6" y="28.8" width="11.6" height="1.02" fill="#97d5c9"/><rect x="47.2" y="21.1" width="10.8" height="1.35" fill="#5cbeaa"/></svg>