<svg width="27" height="26" viewBox="0 0 27 26" fill="none" xmlns="http://www.w3.org/2000/svg">
<path d="M3.08334 13C3.08334 17.6249 5.98216 21.5736 10.0618 23.1273C9.9625 22.2814 9.85688 20.8866 10.0844 19.908C10.2803 19.0666 11.3492 14.5473 11.3492 14.5473C11.3492 14.5473 11.0269 13.9018 11.0269 12.9458C11.0269 11.4472 11.8954 10.3277 12.9778 10.3277C13.8986 10.3277 14.3428 11.0184 14.3428 11.8462C14.3428 12.7716 13.7533 14.1546 13.449 15.4375C13.1954 16.5109 13.988 17.3866 15.046 17.3866C16.9626 17.3866 18.4369 15.3652 18.4369 12.4475C18.4369 9.86461 16.5808 8.05996 13.9311 8.05996C10.8635 8.05996 9.06243 10.3611 9.06243 12.74C9.06243 13.6671 9.41903 14.6602 9.865 15.2009C9.90302 15.2418 9.92989 15.2917 9.94301 15.3459C9.95614 15.4002 9.95508 15.4569 9.93993 15.5106C9.85778 15.8518 9.67542 16.584 9.64021 16.7338C9.59236 16.9307 9.48403 16.9731 9.2791 16.8774C7.93216 16.2509 7.09077 14.2819 7.09077 12.7002C7.09077 9.29767 9.56167 6.17406 14.2155 6.17406C17.9566 6.17406 20.8644 8.83996 20.8644 12.4023C20.8644 16.1191 18.5217 19.1109 15.2681 19.1109C14.1749 19.1109 13.1484 18.5421 12.7963 17.8713C12.7963 17.8713 12.2556 19.9315 12.1247 20.4352C11.8701 21.4138 11.1641 22.6525 10.7263 23.3557C11.7356 23.6663 12.8063 23.8333 13.9167 23.8333C19.8994 23.8333 24.75 18.9827 24.75 13C24.75 7.01725 19.8994 2.16663 13.9167 2.16663C7.93396 2.16663 3.08334 7.01725 3.08334 13Z" fill="white"/>
</svg>
