<svg xmlns="http://www.w3.org/2000/svg" viewBox="0 0 67.2 60.8"><path d="M30.9,7.1l.2-.2a4.8,4.8,0,0,1,6.5,1.7l4.5,6.9a9.7,9.7,0,0,0,2-5.8,9.7,9.7,0,0,0-19.4,0,9.8,9.8,0,0,0,8.7,9.6l-3.8-7.1A3.6,3.6,0,0,1,30.9,7.1Z" fill="#97d5c9"/><path d="M23.3,39.2a4.1,4.1,0,0,1-1.7-1.5c-.8-1.4.1-3.3,1.3-4.5l.6-.5a3.9,3.9,0,0,1,2.8-.6A14.8,14.8,0,0,1,34.2,36a.2.2,0,0,0,.2.2v-.5a9.7,9.7,0,1,0-9.7,9.7,9.9,9.9,0,0,0,4.2-.9c-.8-1.1-1.6-2-2.1-2.6A11,11,0,0,0,23.3,39.2Z" fill="#97d5c9"/><path d="M15.6,8.1c.1.4.1.7.2,1a.4.4,0,0,0,.1.3v.2l.2.2h.3l2.8-.8c.2,0,.3-.2.2-.4h0A11.6,11.6,0,0,1,19.1,7c-.3-1.1-.5-2.5-.8-3.6A9.3,9.3,0,0,1,18.1,2a.8.8,0,0,1-.1-.4h-.1A1.8,1.8,0,0,0,17,.2,1.9,1.9,0,0,0,15.5.1h0l-7,2.7c-.2,0-.3.2-.2.4l1,2.7a.4.4,0,0,0,.5.2l2.4-.9L6.6,15.5h0L4.1,20l-.5-2.6c-.1-.1-.3-.3-.5-.2l-2.8.5a.5.5,0,0,0-.3.5l1.5,7.3a1.6,1.6,0,0,0,.9,1.2,1.6,1.6,0,0,0,1.5.1h.2l.4-.2,1.3-.5,3.4-1.3,1.5-.5h.1c.2,0,.3-.2.3-.4L10.2,21l-.2-.2H9.2l-.9.3-1,.4,2.4-4.5h0l2.7-4.8.5-.9L15.4,7C15.5,7.4,15.5,7.8,15.6,8.1Z" fill="#5cbeaa"/><path d="M64.6,27.6a4.1,4.1,0,0,0-3.1.1h-.3a3.8,3.8,0,0,0-3-2.8,5,5,0,0,0-3.9.8,4,4,0,0,0-4.4-2.3,4,4,0,0,0-3.4,2.1V23.2a2.2,2.2,0,0,0-.1-.8h0a3.6,3.6,0,0,0-.4-.9h0l-.2-.3h0l-3.6-5.6L37.6,8.6a4.8,4.8,0,0,0-6.5-1.7l-.2.2a3.6,3.6,0,0,0-1.3,5.1l3.8,7.1L37,26.1v2.4c-.1.5-.1,10.3-.1,10.3l-2.4-2.6a.2.2,0,0,1-.2-.2,14.8,14.8,0,0,0-7.9-3.9,3.9,3.9,0,0,0-2.8.6l-.6.5c-1.2,1.2-2.1,3.1-1.3,4.5a4.1,4.1,0,0,0,1.7,1.5,11,11,0,0,1,3.5,2.7c.5.6,1.3,1.5,2.1,2.6,2.1,2.6,4.9,6,6.9,8.1.5.3,1.7,1.5,2.3,1.8a15.6,15.6,0,0,1,3.5,2.7,20.1,20.1,0,0,0,2.6,1.5,17,17,0,0,0,8.9,2.2c3.8,0,7.2.3,9.7-2H63a12.7,12.7,0,0,0,4.2-9.3V32.1C67.2,31.3,67,28.4,64.6,27.6Z" fill="#5a6e7f"/></svg>