<svg xmlns="http://www.w3.org/2000/svg" viewBox="0 0 48.9 64.1"><polygon points="28 42 24.4 33 20.9 42 28 42" fill="none"/><polygon points="19.8 45.4 19.6 45.4 16.9 52 32 52 29.3 45.4 29.1 45.4 19.8 45.4" fill="none"/><path d="M10,64.1h.7A2,2,0,0,0,12.6,63l3-7.6H33.3l3,7.6a2.1,2.1,0,0,0,2.6,1.1,1.8,1.8,0,0,0,1.3-2.2L27.3,29.4a5.8,5.8,0,0,0,3-5.1,5.9,5.9,0,1,0-11.7,0,5.8,5.8,0,0,0,3,5.1L8.7,61.9A1.8,1.8,0,0,0,10,64.1ZM21.5,24.2a3,3,0,0,1,5.9,0,3,3,0,1,1-5.9,0ZM24.4,33,28,42H20.9ZM19.6,45.4h9.7L32,52.1H16.9Z" fill="#5a6e7f"/><path d="M37.9,40.3a16.1,16.1,0,0,1-3,2.1.6.6,0,0,0-.2.7l.9,2.4a.3.3,0,0,0,.3.3.3.3,0,0,0,.4,0,22,22,0,0,0,3.2-2.1A24.4,24.4,0,0,0,24.4,0L21.7.2A24.5,24.5,0,0,0,.1,21.7a24.6,24.6,0,0,0,9.3,22,22,22,0,0,0,3.2,2.1H13a.3.3,0,0,0,.3-.3l.9-2.4a.6.6,0,0,0-.2-.7,16.1,16.1,0,0,1-3-2.1A20.8,20.8,0,0,1,3.6,23.8,21,21,0,0,1,23.5,3.7,20.7,20.7,0,0,1,37.9,40.3Z" fill="#5a6e7f"/><path d="M31.5,33c-.2.2-.3.4-.2.6l.9,2.5.3.4H33a15.8,15.8,0,0,0,3-2.8,14.5,14.5,0,0,0,3.2-9.2A14.9,14.9,0,0,0,27.5,10a15.7,15.7,0,0,0-6.1,0A14.9,14.9,0,0,0,9.7,24.4a14.5,14.5,0,0,0,3.2,9.2,15.8,15.8,0,0,0,3,2.8h.4a.8.8,0,0,0,.4-.4l.9-2.5c.1-.2,0-.4-.2-.6a10.5,10.5,0,0,1-2.5-3,10.9,10.9,0,0,1-1.5-5.6A11.1,11.1,0,0,1,20.7,14a10.8,10.8,0,0,1,7.5,0,11.1,11.1,0,0,1,7.3,10.4A10.9,10.9,0,0,1,34,30,10.5,10.5,0,0,1,31.5,33Z" fill="#5cbeaa"/><path d="M21.5,24.2a3,3,0,1,0,5.9,0,3,3,0,0,0-5.9,0Z" fill="#97d5c9"/></svg>