<svg width="27" height="26" viewBox="0 0 27 26" fill="none" xmlns="http://www.w3.org/2000/svg">
<path fill-rule="evenodd" clip-rule="evenodd" d="M24 13C24 18.983 19.1498 23.8333 13.1667 23.8333C7.18359 23.8333 2.33334 18.983 2.33334 13C2.33334 7.01687 7.18359 2.16663 13.1667 2.16663C19.1498 2.16663 24 7.01687 24 13ZM13.5549 10.1643C12.5012 10.6025 10.3953 11.5097 7.23713 12.8856C6.72429 13.0895 6.45565 13.289 6.43119 13.4841C6.38986 13.8138 6.80273 13.9436 7.36494 14.1204C7.44142 14.1445 7.52065 14.1694 7.60189 14.1958C8.15502 14.3756 8.89908 14.5859 9.28588 14.5943C9.63675 14.6019 10.0284 14.4572 10.4607 14.1603C13.4115 12.1685 14.9346 11.1617 15.0303 11.14C15.0977 11.1247 15.1912 11.1055 15.2546 11.1618C15.3179 11.2181 15.3117 11.3247 15.305 11.3533C15.2641 11.5277 13.6434 13.0344 12.8047 13.8141C12.5433 14.0572 12.3578 14.2296 12.3199 14.2689C12.235 14.3572 12.1484 14.4406 12.0653 14.5208C11.5514 15.0162 11.166 15.3877 12.0866 15.9943C12.529 16.2858 12.883 16.5269 13.2361 16.7674C13.6218 17.03 14.0065 17.292 14.5042 17.6183C14.631 17.7014 14.7521 17.7877 14.8701 17.8718C15.319 18.1918 15.7222 18.4793 16.2204 18.4335C16.5099 18.4068 16.8089 18.1346 16.9607 17.3228C17.3196 15.4042 18.0251 11.2472 18.1881 9.53417C18.2024 9.38409 18.1844 9.19202 18.17 9.1077C18.1556 9.02339 18.1254 8.90325 18.0158 8.81432C17.886 8.709 17.6856 8.68679 17.596 8.68829C17.1886 8.69555 16.5634 8.91292 13.5549 10.1643Z" fill="white"/>
</svg>
