<svg width="27" height="26" viewBox="0 0 27 26" fill="none" xmlns="http://www.w3.org/2000/svg">
<path d="M18.307 5.56223C17.5128 4.65173 17.0353 3.46451 17.0353 2.16663H16.0401C16.2964 3.58525 17.1409 4.80266 18.307 5.56223Z" fill="white"/>
<path d="M9.09862 12.8968C7.37458 12.8968 5.97224 14.3004 5.97224 16.0258C5.97224 17.2282 6.65582 18.2745 7.65103 18.7977C7.27909 18.2845 7.05793 17.6558 7.05793 16.9716C7.05793 15.2461 8.46027 13.8425 10.1843 13.8425C10.506 13.8425 10.8176 13.8979 11.1092 13.9884V10.1854C10.8075 10.1451 10.501 10.1199 10.1843 10.1199C10.129 10.1199 10.0787 10.1249 10.0235 10.1249V13.0427C9.72691 12.9521 9.4203 12.8968 9.09862 12.8968Z" fill="white"/>
<path d="M21.1266 7.23238V10.1249C19.1964 10.1249 17.4071 9.50622 15.9494 8.45983V16.0309C15.9494 19.8088 12.8784 22.8875 9.09853 22.8875C7.64089 22.8875 6.28379 22.4247 5.17297 21.645C6.42452 22.9881 8.20887 23.8333 10.1843 23.8333C13.959 23.8333 17.0351 20.7596 17.0351 16.9766V9.40558C18.4927 10.452 20.2821 11.0707 22.2122 11.0707V7.34813C21.8352 7.34813 21.4734 7.30784 21.1266 7.23238Z" fill="white"/>
<path d="M15.9494 16.0309V8.45983C17.4071 9.50622 19.1964 10.1249 21.1266 10.1249V7.23238C20.0107 6.996 19.0307 6.39231 18.307 5.56223C17.1408 4.80266 16.3013 3.58525 16.0348 2.16663H13.3106L13.3056 17.0923C13.2453 18.7624 11.868 20.1056 10.1843 20.1056C9.13875 20.1056 8.21893 19.5875 7.64593 18.8027C6.65071 18.2745 5.96713 17.2332 5.96713 16.0309C5.96713 14.3054 7.36948 12.9018 9.09351 12.9018C9.41519 12.9018 9.72683 12.9572 10.0184 13.0477V10.13C6.31898 10.2105 3.33334 13.2489 3.33334 16.9766C3.33334 18.7775 4.032 20.4175 5.17297 21.645C6.28379 22.4247 7.64089 22.8875 9.09853 22.8875C12.8733 22.8875 15.9494 19.8088 15.9494 16.0309Z" fill="white"/>
</svg>
