<svg xmlns="http://www.w3.org/2000/svg" viewBox="0 0 69.1 71.6"><path d="M19.3,42.6h-1A6.9,6.9,0,0,0,12,37.2h-.4c-3.7,0-6.7,2-6.7,5.7v-.3H4.4C2,42.6,0,43.8,0,46.3s2,3.6,4.4,3.6H19.8c1.2,0,2.4,1.3,3.2.4s1.8-1.6,1.8-3.2S22.3,42.6,19.3,42.6Z" fill="#97d5c9"/><path d="M38.1,52.4S57.5,38.6,54,19.4,29.8,0,29.8,0,9.3-.8,5.6,19.1,21.5,52.4,21.5,52.4Z" fill="#5a6e7f"/><path d="M29.8,54.3C55.3,24.2,29.8.5,29.8.5S4.2,24.2,29.8,54.3Z" fill="#5cbfab"/><path d="M63.7,22.9H62.6a6.8,6.8,0,0,0-6.3-5.5H56c-3.8,0-6.8,2-6.8,5.7,0,.2,0-.3.1-.3h-.6c-2.4,0-4.4,1.2-4.4,3.7s2,3.6,4.4,3.6H64.1c1.2,0,2.4,1.3,3.2.4s1.8-1.6,1.8-3.2S66.7,22.9,63.7,22.9Z" fill="#97d5c9"/><path d="M21.5,61.7H38.1a0,0,0,0,1,0,0v9.1a.8.8,0,0,1-.8.8h-15a.8.8,0,0,1-.8-.8V61.7A0,0,0,0,1,21.5,61.7Z" fill="#5cbfab"/><rect x="21.5" y="54.3" width="1.3" height="7.39" fill="#5a6e7f"/><rect x="36.7" y="54.3" width="1.3" height="7.39" fill="#5a6e7f"/><rect x="29.1" y="54.3" width="1.3" height="7.39" fill="#5a6e7f"/></svg>