<svg xmlns="http://www.w3.org/2000/svg" viewBox="0 0 76.4 43.8"><path d="M12.4,24.6v-.7H9.8c0,.2-.1.5-.1.7Z" fill="#5cbeaa"/><path d="M12.4,25.7V25H9.6a2,2,0,0,0-.1.7Z" fill="#5cbeaa"/><path d="M12.4,26.9v-.7h-3c0,.2-.1.5-.1.7Z" fill="#5cbeaa"/><path d="M12.4,28v-.7H9.3c0,.3-.1.5-.1.7Z" fill="#5cbeaa"/><path d="M12.4,29.2v-.7H9.2v.7Z" fill="#5cbeaa"/><path d="M76.4,21V5.8a1.2,1.2,0,0,0-1.3-1.2H15.3V0H11.4V4.6h-1A1.2,1.2,0,0,0,9.2,5.8V19.1H9c-4.3.1-6.4,1.7-7.3,5.4H4.2v.7H1.5c0,.3-.1.5-.1.8H4.2v.7H1.3c0,.3-.1.5-.1.8h3v.7H1.1v.8H4.2v.7H1v.8H4.2v.7H1C1,32.1.9,33,.9,34H0v2H11.2a1.5,1.5,0,0,1-.1-.7,8.5,8.5,0,0,1,16.9,0V36H54.2a1.5,1.5,0,0,1-.1-.7,8.5,8.5,0,0,1,16.9,0V36h4.1a1.2,1.2,0,0,0,1.3-1.2V26.4H24.3V24.5H76.4V22.8H24.3V21ZM64.4,9.2h9.4V17H64.4Zm-13.1,0H61.9V17H51.3Zm-13.1,0H48.8V17H38.2Zm-13.1,0H35.7V17H25.1ZM14.6,19H10V9.3h4.6Zm4.6,6.3H16.4V9.3h2.8Zm3.9,0H20.3V9.3h2.8Z" fill="#5a6e7f"/><path d="M55,35.3a7.6,7.6,0,1,0,7.6-7.6A7.6,7.6,0,0,0,55,35.3Zm11.2,0A3.6,3.6,0,0,1,62.6,39a3.7,3.7,0,1,1,0-7.3A3.6,3.6,0,0,1,66.2,35.3Z" fill="#5a6e7f"/><path d="M54.1,35.3a1.5,1.5,0,0,0,.1.7A8.4,8.4,0,0,0,71,36v-.7a8.5,8.5,0,0,0-16.9,0Zm16.1,0a7.6,7.6,0,1,1-7.6-7.6A7.6,7.6,0,0,1,70.2,35.3Z" fill="#fff"/><path d="M58.9,35.3A3.7,3.7,0,0,0,62.6,39a3.7,3.7,0,0,0,0-7.3A3.7,3.7,0,0,0,58.9,35.3Z" fill="#97d5c9"/><path d="M12,35.3a7.6,7.6,0,1,0,7.6-7.6A7.6,7.6,0,0,0,12,35.3Zm11.2,0A3.6,3.6,0,0,1,19.6,39a3.7,3.7,0,1,1,0-7.3A3.6,3.6,0,0,1,23.2,35.3Z" fill="#5a6e7f"/><path d="M11.1,35.3a1.5,1.5,0,0,0,.1.7,8.3,8.3,0,0,0,8.4,7.8A8.5,8.5,0,0,0,28,36v-.7a8.5,8.5,0,0,0-16.9,0Zm16.1,0a7.6,7.6,0,1,1-7.6-7.6A7.6,7.6,0,0,1,27.2,35.3Z" fill="#fff"/><path d="M15.9,35.3A3.7,3.7,0,0,0,19.6,39a3.7,3.7,0,0,0,0-7.3A3.7,3.7,0,0,0,15.9,35.3Z" fill="#97d5c9"/><rect x="16.4" y="9.3" width="2.8" height="16.04" fill="#fff"/><rect x="20.3" y="9.3" width="2.8" height="16.04" fill="#fff"/><rect x="25.1" y="9.2" width="10.6" height="7.79" fill="#fff"/><rect x="38.2" y="9.2" width="10.6" height="7.79" fill="#fff"/><rect x="51.3" y="9.2" width="10.6" height="7.79" fill="#fff"/><rect x="64.4" y="9.2" width="9.4" height="7.79" fill="#fff"/><rect x="24.3" y="21" width="52" height="1.8" fill="#5cbeaa"/><rect x="24.3" y="24.5" width="52" height="1.91" fill="#5cbeaa"/><rect x="10" y="9.3" width="4.6" height="9.71" fill="#fff"/></svg>