<svg xmlns="http://www.w3.org/2000/svg" viewBox="0 0 57.8 66.1"><path d="M36.5,3.9c-16,20.2-18,32.3-18.1,36.6h-.1c0,.7-.1,1.4-.1,2.1,0,11.3,8.2,20.4,18.3,20.4S54.8,54,54.8,42.7a14.8,14.8,0,0,0-.1-2.1h0C54.6,36.2,52.5,24.1,36.5,3.9Zm7,20.7a1.6,1.6,0,0,1,2.9-1.3,112.9,112.9,0,0,1,5.1,14.2,1.6,1.6,0,0,1-1.1,1.9H50a1.8,1.8,0,0,1-1.6-1.1A105.8,105.8,0,0,0,43.5,24.6Zm7.1,20.6a2.1,2.1,0,1,1,2.1-2.1A2.1,2.1,0,0,1,50.6,45.2Z" fill="#97d5c9"/><path d="M35.4.5A134.1,134.1,0,0,0,23,18.4,103.2,103.2,0,0,0,14.8,6.8c-.1-.2-.4-.2-.6,0C1.7,22.2.2,31.6.1,34.8A9.7,9.7,0,0,0,0,36.5c0,8.8,6.5,16,14.5,16l2.6-.2c3.3,8.1,10.8,13.8,19.4,13.8,11.8,0,21.3-10.5,21.3-23.4a16.9,16.9,0,0,0-.1-2.3c-.1-4.8-2.4-18.1-20-39.9A1.5,1.5,0,0,0,35.4.5ZM54.7,40.6a14.8,14.8,0,0,1,.1,2.1c0,11.3-8.2,20.4-18.3,20.4S18.2,54,18.2,42.7c0-.7.1-1.4.1-2.1h.1c.1-4.3,2.1-16.4,18.1-36.6,16,20.2,18.1,32.3,18.2,36.6Z" fill="#5a6e7f"/><path d="M44.3,22.5a1.7,1.7,0,0,0-.8,2.1,105.8,105.8,0,0,1,4.9,13.8A1.8,1.8,0,0,0,50,39.5h.4a1.6,1.6,0,0,0,1.1-1.9,112.9,112.9,0,0,0-5.1-14.2A1.7,1.7,0,0,0,44.3,22.5Z" fill="#fff"/><path d="M48.6,43.1A2.1,2.1,0,1,0,50.7,41,2.1,2.1,0,0,0,48.6,43.1Z" fill="#fff"/></svg>