<svg width="27" height="26" viewBox="0 0 27 26" fill="none" xmlns="http://www.w3.org/2000/svg">
<path d="M2.25002 23.8333L3.77916 18.2748C2.83959 16.6442 2.34617 14.7949 2.34859 12.9129C2.33771 6.98258 7.15366 2.16663 13.0725 2.16663C15.9451 2.16663 18.6424 3.28036 20.6734 5.31197C21.6745 6.30784 22.4679 7.49247 23.0079 8.79721C23.5478 10.102 23.8234 11.5009 23.8187 12.9129C23.8187 18.8317 19.0028 23.6477 13.0833 23.6477C11.2815 23.6477 9.52323 23.1996 7.95056 22.3374L2.25002 23.8333ZM8.20211 20.4044L8.52983 20.6009C9.90538 21.4148 11.4741 21.8448 13.0725 21.8458C17.987 21.8458 21.9952 17.8383 21.9952 12.9231C21.9952 10.5427 21.067 8.29346 19.3849 6.61197C18.5577 5.78012 17.5741 5.12019 16.4907 4.67022C15.4073 4.22025 14.2456 3.98914 13.0725 3.99021C8.14706 3.99085 4.14017 7.99838 4.14017 12.9135C4.14017 14.595 4.60999 16.2445 5.50546 17.6642L5.71284 18.0028L4.80649 21.3005L8.20275 20.405L8.20211 20.4044Z" fill="white"/>
<path fill-rule="evenodd" clip-rule="evenodd" d="M10.3969 8.41379C10.2004 7.96574 9.98217 7.95486 9.79654 7.95486C9.63268 7.94398 9.4573 7.94398 9.27168 7.94398C9.09758 7.94398 8.8025 8.00927 8.55159 8.28258C8.30004 8.55525 7.6126 9.19981 7.6126 10.5209C7.6126 11.8427 8.57335 13.1203 8.70457 13.295C8.83514 13.4698 10.5608 16.265 13.2914 17.3467C15.5624 18.2422 16.0213 18.0675 16.5129 18.0124C17.0038 17.958 18.0964 17.3685 18.3256 16.7348C18.5439 16.1127 18.5439 15.5667 18.4786 15.4572C18.4133 15.3484 18.227 15.2825 17.9652 15.1404C17.6919 15.0098 16.3817 14.3544 16.1308 14.2667C15.8792 14.1796 15.7045 14.1361 15.5297 14.3979C15.355 14.6712 14.8416 15.2716 14.6784 15.4463C14.5248 15.6211 14.3616 15.6428 14.0992 15.5116C13.8265 15.3811 12.9637 15.0969 11.937 14.1796C11.1394 13.4691 10.6043 12.5852 10.4405 12.3234C10.2881 12.0501 10.4187 11.908 10.5608 11.7768C10.6811 11.6571 10.8341 11.4606 10.9653 11.3076C11.0959 11.154 11.1394 11.0343 11.238 10.8595C11.3251 10.6848 11.2815 10.5209 11.2162 10.3904C11.1503 10.27 10.6376 8.94826 10.3969 8.41315V8.41379Z" fill="white"/>
</svg>
