<svg width="27" height="26" viewBox="0 0 27 26" fill="none" xmlns="http://www.w3.org/2000/svg">
<path fill-rule="evenodd" clip-rule="evenodd" d="M22.3945 4.8317C23.4206 5.10637 24.227 5.91272 24.5016 6.9388C24.998 8.79672 25 12.6754 25 12.6754C25 12.6754 25 16.5542 24.5016 18.4121C24.227 19.4382 23.4206 20.2445 22.3945 20.5191C20.5367 21.0175 13.0833 21.0175 13.0833 21.0175C13.0833 21.0175 5.63001 21.0175 3.77208 20.5191C2.74601 20.2445 1.93966 19.4382 1.66499 18.4121C1.16666 16.5542 1.16666 12.6754 1.16666 12.6754C1.16666 12.6754 1.16666 8.79672 1.66499 6.9388C1.93966 5.91272 2.74601 5.10637 3.77208 4.8317C5.63001 4.33337 13.0833 4.33337 13.0833 4.33337C13.0833 4.33337 20.5367 4.33337 22.3945 4.8317ZM16.8895 12.6758L10.6977 16.2503V9.10114L16.8895 12.6758Z" fill="white"/>
</svg>
